# xmcd CD database file
#
# Track frame offsets:
#	150
#	12601
#	25861
#	39282
#	50404
#	70912
#	84460
#	97683
#	106848
#	121409
#	132825
#	148014
#	162752
#	175259
#	190232
#	204979
#	219195
#	235534
#	247927
#	262995
#
# Disc length: 3692 seconds
#
# Revision: 0
# Processed by: cddbd v1.5.1PL0 Copyright (c) Steve Scherf et al.
# Submitted via: CDex 1.51
#
DISCID=fd0e6a14
DTITLE=Frank Sinatra - 20 Outstanding Performances
DYEAR=1900
DGENRE=Jazz
TTITLE0=Come fly with me
TTITLE1=I get a kick out of you
TTITLE2=Dream
TTITLE3=Should I?
TTITLE4=Stormy wheather
TTITLE5=If I loved you
TTITLE6=You make me feel so young
TTITLE7=I've got you under my skin
TTITLE8=Don't cry Joe
TTITLE9=Five minutes more
TTITLE10=Nancy
TTITLE11=I fall in love too easily
TTITLE12=Just one of those things
TTITLE13=Over the Rainbow
TTITLE14=Oh! Look at me now
TTITLE15=These foolish things
TTITLE16=We kiss in a shadow
TTITLE17=Lover
TTITLE18=People will say we're in love
TTITLE19=I'll be seeing you
EXTD=
EXTT0=
EXTT1=
EXTT2=
EXTT3=
EXTT4=
EXTT5=
EXTT6=
EXTT7=
EXTT8=
EXTT9=
EXTT10=
EXTT11=
EXTT12=
EXTT13=
EXTT14=
EXTT15=
EXTT16=
EXTT17=
EXTT18=
EXTT19=
PLAYORDER=
